<svg width="170" height="49" viewBox="0 0 170 49" fill="none" xmlns="http://www.w3.org/2000/svg">
<rect y="0.565094" width="170" height="48" rx="5" fill="white"/>
<path d="M49.9315 32.5651V19.3651H59.1915V20.8651H51.5315V25.1251H57.4915V26.6251H51.5315V31.0651H59.4915V32.5651H49.9315ZM63.3454 22.5651L66.3254 26.7451L66.4254 26.8851L70.5254 32.5651H68.5654L65.4654 28.2251L65.2854 28.0051L61.3454 22.5651H63.3454ZM70.4654 22.5651L66.5054 27.9051H66.4054L62.9654 32.5651H61.1054L65.4654 26.8251H65.5854L68.5854 22.5651H70.4654ZM73.0495 36.7651V22.5651H74.4495L74.5895 25.0051L74.3695 24.7251C74.5428 24.2584 74.8028 23.8518 75.1495 23.5051C75.4961 23.1451 75.9161 22.8651 76.4095 22.6651C76.9028 22.4651 77.4361 22.3651 78.0095 22.3651C78.8228 22.3651 79.5695 22.5718 80.2495 22.9851C80.9428 23.3984 81.4961 23.9918 81.9095 24.7651C82.3228 25.5384 82.5295 26.4718 82.5295 27.5651C82.5295 28.6451 82.3161 29.5784 81.8895 30.3651C81.4761 31.1384 80.9228 31.7318 80.2295 32.1451C79.5361 32.5584 78.7761 32.7651 77.9495 32.7651C77.1228 32.7651 76.3961 32.5651 75.7695 32.1651C75.1561 31.7518 74.7161 31.2318 74.4495 30.6051L74.6495 30.3051V36.7651H73.0495ZM77.7895 31.3651C78.7761 31.3651 79.5428 31.0184 80.0895 30.3251C80.6495 29.6318 80.9295 28.7118 80.9295 27.5651C80.9295 26.4184 80.6561 25.4984 80.1095 24.8051C79.5761 24.1118 78.8228 23.7651 77.8495 23.7651C77.2095 23.7651 76.6495 23.9251 76.1695 24.2451C75.6895 24.5518 75.3161 24.9918 75.0495 25.5651C74.7828 26.1251 74.6495 26.7918 74.6495 27.5651C74.6495 28.3251 74.7761 28.9918 75.0295 29.5651C75.2961 30.1384 75.6628 30.5851 76.1295 30.9051C76.6095 31.2118 77.1628 31.3651 77.7895 31.3651ZM87.1085 17.9651V30.0251C87.1085 30.5318 87.2018 30.8851 87.3885 31.0851C87.5752 31.2718 87.8752 31.3651 88.2885 31.3651C88.5552 31.3651 88.7752 31.3451 88.9485 31.3051C89.1218 31.2651 89.3552 31.1918 89.6485 31.0851L89.3885 32.4851C89.1752 32.5784 88.9418 32.6451 88.6885 32.6851C88.4352 32.7384 88.1752 32.7651 87.9085 32.7651C87.0952 32.7651 86.4885 32.5451 86.0885 32.1051C85.7018 31.6651 85.5085 30.9918 85.5085 30.0851V17.9651H87.1085ZM95.8418 22.3651C96.7885 22.3651 97.6218 22.5718 98.3418 22.9851C99.0751 23.3984 99.6485 23.9984 100.062 24.7851C100.475 25.5584 100.682 26.4851 100.682 27.5651C100.682 28.6451 100.475 29.5784 100.062 30.3651C99.6485 31.1384 99.0751 31.7318 98.3418 32.1451C97.6218 32.5584 96.7885 32.7651 95.8418 32.7651C94.9085 32.7651 94.0751 32.5584 93.3418 32.1451C92.6085 31.7318 92.0351 31.1384 91.6218 30.3651C91.2085 29.5784 91.0018 28.6451 91.0018 27.5651C91.0018 26.4851 91.2085 25.5584 91.6218 24.7851C92.0351 23.9984 92.6085 23.3984 93.3418 22.9851C94.0751 22.5718 94.9085 22.3651 95.8418 22.3651ZM95.8418 23.7451C95.1618 23.7451 94.5818 23.8984 94.1018 24.2051C93.6218 24.5118 93.2485 24.9518 92.9818 25.5251C92.7285 26.0851 92.6018 26.7651 92.6018 27.5651C92.6018 28.3518 92.7285 29.0318 92.9818 29.6051C93.2485 30.1784 93.6218 30.6184 94.1018 30.9251C94.5818 31.2318 95.1618 31.3851 95.8418 31.3851C96.5218 31.3851 97.1018 31.2318 97.5818 30.9251C98.0618 30.6184 98.4285 30.1784 98.6818 29.6051C98.9485 29.0318 99.0818 28.3518 99.0818 27.5651C99.0818 26.7651 98.9485 26.0851 98.6818 25.5251C98.4285 24.9518 98.0618 24.5118 97.5818 24.2051C97.1018 23.8984 96.5218 23.7451 95.8418 23.7451ZM103.694 32.5651V22.5651H104.994L105.214 24.2051C105.494 23.5918 105.901 23.1318 106.434 22.8251C106.981 22.5184 107.641 22.3651 108.414 22.3651C108.587 22.3651 108.774 22.3784 108.974 22.4051C109.187 22.4318 109.367 22.4851 109.514 22.5651L109.234 24.0251C109.087 23.9718 108.927 23.9318 108.754 23.9051C108.581 23.8784 108.334 23.8651 108.014 23.8651C107.601 23.8651 107.181 23.9851 106.754 24.2251C106.341 24.4651 105.994 24.8318 105.714 25.3251C105.434 25.8051 105.294 26.4184 105.294 27.1651V32.5651H103.694ZM115.726 32.7651C114.779 32.7651 113.932 32.5584 113.186 32.1451C112.452 31.7318 111.879 31.1384 111.466 30.3651C111.052 29.5784 110.846 28.6451 110.846 27.5651C110.846 26.4851 111.052 25.5584 111.466 24.7851C111.879 23.9984 112.446 23.3984 113.166 22.9851C113.886 22.5718 114.706 22.3651 115.626 22.3651C116.559 22.3651 117.352 22.5651 118.006 22.9651C118.672 23.3651 119.179 23.9118 119.526 24.6051C119.872 25.2851 120.046 26.0518 120.046 26.9051C120.046 27.1318 120.039 27.3384 120.026 27.5251C120.012 27.7118 119.992 27.8784 119.966 28.0251H111.886V26.6051H119.266L118.446 26.7651C118.446 25.8051 118.179 25.0651 117.646 24.5451C117.126 24.0251 116.439 23.7651 115.586 23.7651C114.932 23.7651 114.366 23.9184 113.886 24.2251C113.419 24.5184 113.052 24.9518 112.786 25.5251C112.532 26.0851 112.406 26.7651 112.406 27.5651C112.406 28.3518 112.539 29.0318 112.806 29.6051C113.072 30.1784 113.446 30.6184 113.926 30.9251C114.419 31.2184 115.006 31.3651 115.686 31.3651C116.419 31.3651 117.012 31.2251 117.466 30.9451C117.932 30.6651 118.306 30.2851 118.586 29.8051L119.846 30.5451C119.592 30.9984 119.266 31.3918 118.866 31.7251C118.479 32.0584 118.019 32.3184 117.486 32.5051C116.966 32.6784 116.379 32.7651 115.726 32.7651Z" fill="black"/>
</svg>
