<svg width="171" height="48" viewBox="0 0 171 48" fill="none" xmlns="http://www.w3.org/2000/svg">
<rect x="0.491089" width="170" height="48" rx="5" fill="#212529"/>
<path d="M34.1534 30.5H41.7134V32H32.5534V18.8H34.1534V30.5ZM48.0936 32.2C47.1469 32.2 46.3003 31.9933 45.5536 31.58C44.8203 31.1667 44.2469 30.5733 43.8336 29.8C43.4203 29.0133 43.2136 28.08 43.2136 27C43.2136 25.92 43.4203 24.9933 43.8336 24.22C44.2469 23.4333 44.8136 22.8333 45.5336 22.42C46.2536 22.0067 47.0736 21.8 47.9936 21.8C48.9269 21.8 49.7203 22 50.3736 22.4C51.0403 22.8 51.5469 23.3467 51.8936 24.04C52.2403 24.72 52.4136 25.4867 52.4136 26.34C52.4136 26.5667 52.4069 26.7733 52.3936 26.96C52.3803 27.1467 52.3603 27.3133 52.3336 27.46H44.2536V26.04H51.6336L50.8136 26.2C50.8136 25.24 50.5469 24.5 50.0136 23.98C49.4936 23.46 48.8069 23.2 47.9536 23.2C47.3003 23.2 46.7336 23.3533 46.2536 23.66C45.7869 23.9533 45.4203 24.3867 45.1536 24.96C44.9003 25.52 44.7736 26.2 44.7736 27C44.7736 27.7867 44.9069 28.4667 45.1736 29.04C45.4403 29.6133 45.8136 30.0533 46.2936 30.36C46.7869 30.6533 47.3736 30.8 48.0536 30.8C48.7869 30.8 49.3803 30.66 49.8336 30.38C50.3003 30.1 50.6736 29.72 50.9536 29.24L52.2136 29.98C51.9603 30.4333 51.6336 30.8267 51.2336 31.16C50.8469 31.4933 50.3869 31.7533 49.8536 31.94C49.3336 32.1133 48.7469 32.2 48.0936 32.2ZM61.2966 25.54C61.2966 24.7933 61.0966 24.22 60.6966 23.82C60.2966 23.4067 59.7299 23.2 58.9966 23.2C58.3032 23.2 57.7166 23.3533 57.2366 23.66C56.7566 23.9533 56.4032 24.4333 56.1766 25.1L54.8766 24.3C55.1432 23.5533 55.6366 22.9533 56.3566 22.5C57.0766 22.0333 57.9699 21.8 59.0366 21.8C59.7566 21.8 60.4099 21.9267 60.9966 22.18C61.5832 22.42 62.0432 22.7933 62.3766 23.3C62.7232 23.7933 62.8966 24.4333 62.8966 25.22V30.06C62.8966 30.54 63.1499 30.78 63.6566 30.78C63.9099 30.78 64.1566 30.7467 64.3966 30.68L64.3166 31.94C64.0499 32.0733 63.7032 32.14 63.2766 32.14C62.8899 32.14 62.5432 32.0667 62.2366 31.92C61.9299 31.7733 61.6899 31.5533 61.5166 31.26C61.3432 30.9533 61.2566 30.5733 61.2566 30.12V29.92L61.6566 29.98C61.4966 30.5 61.2232 30.9267 60.8366 31.26C60.4499 31.58 60.0166 31.82 59.5366 31.98C59.0566 32.1267 58.5832 32.2 58.1166 32.2C57.5299 32.2 56.9832 32.1 56.4766 31.9C55.9699 31.7 55.5632 31.4 55.2566 31C54.9632 30.5867 54.8166 30.08 54.8166 29.48C54.8166 28.7333 55.0632 28.12 55.5566 27.64C56.0632 27.1467 56.7632 26.8133 57.6566 26.64L61.6166 25.86V27.18L58.3966 27.84C57.7432 27.9733 57.2566 28.16 56.9366 28.4C56.6166 28.64 56.4566 28.9733 56.4566 29.4C56.4566 29.8133 56.6166 30.1533 56.9366 30.42C57.2699 30.6733 57.7366 30.8 58.3366 30.8C58.7232 30.8 59.0899 30.7533 59.4366 30.66C59.7966 30.5533 60.1166 30.4 60.3966 30.2C60.6766 29.9867 60.8966 29.7267 61.0566 29.42C61.2166 29.1 61.2966 28.7267 61.2966 28.3V25.54ZM66.7847 32V22H68.0847L68.3047 23.64C68.5847 23.0267 68.9913 22.5667 69.5247 22.26C70.0713 21.9533 70.7313 21.8 71.5047 21.8C71.678 21.8 71.8647 21.8133 72.0647 21.84C72.278 21.8667 72.458 21.92 72.6047 22L72.3247 23.46C72.178 23.4067 72.018 23.3667 71.8447 23.34C71.6713 23.3133 71.4247 23.3 71.1047 23.3C70.6913 23.3 70.2713 23.42 69.8447 23.66C69.4313 23.9 69.0847 24.2667 68.8047 24.76C68.5247 25.24 68.3847 25.8533 68.3847 26.6V32H66.7847ZM74.9487 32V22H76.3487L76.4887 24.24L76.2287 24.02C76.4421 23.4867 76.7287 23.06 77.0887 22.74C77.4487 22.4067 77.8621 22.1667 78.3287 22.02C78.8087 21.8733 79.3021 21.8 79.8087 21.8C80.5287 21.8 81.1821 21.94 81.7687 22.22C82.3554 22.4867 82.8221 22.9 83.1687 23.46C83.5287 24.02 83.7087 24.7333 83.7087 25.6V32H82.1087V26.16C82.1087 25.0533 81.8687 24.2867 81.3887 23.86C80.9221 23.42 80.3421 23.2 79.6487 23.2C79.1687 23.2 78.6887 23.3133 78.2087 23.54C77.7287 23.7667 77.3287 24.1333 77.0087 24.64C76.7021 25.1467 76.5487 25.8267 76.5487 26.68V32H74.9487ZM107.208 18.8V32H105.688V23.7L105.868 20.22H105.848L101.508 32H100.148L95.808 20.22H95.788L95.968 23.7V32H94.448V18.8H96.908L99.808 26.82L100.808 30.12H100.848L101.868 26.84L104.748 18.8H107.208ZM115.202 21.8C116.149 21.8 116.982 22.0067 117.702 22.42C118.435 22.8333 119.009 23.4333 119.422 24.22C119.835 24.9933 120.042 25.92 120.042 27C120.042 28.08 119.835 29.0133 119.422 29.8C119.009 30.5733 118.435 31.1667 117.702 31.58C116.982 31.9933 116.149 32.2 115.202 32.2C114.269 32.2 113.435 31.9933 112.702 31.58C111.969 31.1667 111.395 30.5733 110.982 29.8C110.569 29.0133 110.362 28.08 110.362 27C110.362 25.92 110.569 24.9933 110.982 24.22C111.395 23.4333 111.969 22.8333 112.702 22.42C113.435 22.0067 114.269 21.8 115.202 21.8ZM115.202 23.18C114.522 23.18 113.942 23.3333 113.462 23.64C112.982 23.9467 112.609 24.3867 112.342 24.96C112.089 25.52 111.962 26.2 111.962 27C111.962 27.7867 112.089 28.4667 112.342 29.04C112.609 29.6133 112.982 30.0533 113.462 30.36C113.942 30.6667 114.522 30.82 115.202 30.82C115.882 30.82 116.462 30.6667 116.942 30.36C117.422 30.0533 117.789 29.6133 118.042 29.04C118.309 28.4667 118.442 27.7867 118.442 27C118.442 26.2 118.309 25.52 118.042 24.96C117.789 24.3867 117.422 23.9467 116.942 23.64C116.462 23.3333 115.882 23.18 115.202 23.18ZM123.054 32V22H124.354L124.574 23.64C124.854 23.0267 125.261 22.5667 125.794 22.26C126.341 21.9533 127.001 21.8 127.774 21.8C127.948 21.8 128.134 21.8133 128.334 21.84C128.548 21.8667 128.728 21.92 128.874 22L128.594 23.46C128.448 23.4067 128.288 23.3667 128.114 23.34C127.941 23.3133 127.694 23.3 127.374 23.3C126.961 23.3 126.541 23.42 126.114 23.66C125.701 23.9 125.354 24.2667 125.074 24.76C124.794 25.24 124.654 25.8533 124.654 26.6V32H123.054ZM135.086 32.2C134.139 32.2 133.292 31.9933 132.546 31.58C131.812 31.1667 131.239 30.5733 130.826 29.8C130.412 29.0133 130.206 28.08 130.206 27C130.206 25.92 130.412 24.9933 130.826 24.22C131.239 23.4333 131.806 22.8333 132.526 22.42C133.246 22.0067 134.066 21.8 134.986 21.8C135.919 21.8 136.712 22 137.366 22.4C138.032 22.8 138.539 23.3467 138.886 24.04C139.232 24.72 139.406 25.4867 139.406 26.34C139.406 26.5667 139.399 26.7733 139.386 26.96C139.372 27.1467 139.352 27.3133 139.326 27.46H131.246V26.04H138.626L137.806 26.2C137.806 25.24 137.539 24.5 137.006 23.98C136.486 23.46 135.799 23.2 134.946 23.2C134.292 23.2 133.726 23.3533 133.246 23.66C132.779 23.9533 132.412 24.3867 132.146 24.96C131.892 25.52 131.766 26.2 131.766 27C131.766 27.7867 131.899 28.4667 132.166 29.04C132.432 29.6133 132.806 30.0533 133.286 30.36C133.779 30.6533 134.366 30.8 135.046 30.8C135.779 30.8 136.372 30.66 136.826 30.38C137.292 30.1 137.666 29.72 137.946 29.24L139.206 29.98C138.952 30.4333 138.626 30.8267 138.226 31.16C137.839 31.4933 137.379 31.7533 136.846 31.94C136.326 32.1133 135.739 32.2 135.086 32.2Z" fill="white"/>
</svg>
